<svg xmlns="http://www.w3.org/2000/svg" xmlns:xlink="http://www.w3.org/1999/xlink" viewBox="0 0 112.29 237.06"><defs><linearGradient id="linear-gradient" x1="56.14" y1="39.99" x2="56.14" gradientUnits="userSpaceOnUse"><stop offset="0" stop-color="#ced6df"/><stop offset="1" stop-color="#77797c"/></linearGradient><linearGradient id="linear-gradient-2" x1="56.14" y1="197.07" x2="56.14" y2="237.06" gradientUnits="userSpaceOnUse"><stop offset="0" stop-color="#70747b"/><stop offset="1" stop-color="#505054"/></linearGradient><linearGradient id="linear-gradient-3" x1="56.14" y1="197.07" x2="56.14" y2="39.99" gradientUnits="userSpaceOnUse"><stop offset="0" stop-color="#bac0ca"/><stop offset="1" stop-color="#77797c"/></linearGradient><linearGradient id="_ÂÁ_Ï_ÌÌ_È_ËÂÌÚ_203" x1="56.14" y1="58.34" x2="56.14" y2="39.99" gradientUnits="userSpaceOnUse"><stop offset="0"/><stop offset="1" stop-color="#fff"/></linearGradient><linearGradient id="_ÂÁ_Ï_ÌÌ_È_ËÂÌÚ_203-2" x1="56.14" y1="76.7" x2="56.14" y2="58.34" xlink:href="#_ÂÁ_Ï_ÌÌ_È_ËÂÌÚ_203"/><linearGradient id="_ÂÁ_Ï_ÌÌ_È_ËÂÌÚ_203-3" x1="56.14" y1="95.06" x2="56.14" y2="76.7" xlink:href="#_ÂÁ_Ï_ÌÌ_È_ËÂÌÚ_203"/><linearGradient id="_ÂÁ_Ï_ÌÌ_È_ËÂÌÚ_203-4" x1="56.14" y1="113.41" x2="56.14" y2="95.06" xlink:href="#_ÂÁ_Ï_ÌÌ_È_ËÂÌÚ_203"/><linearGradient id="_ÂÁ_Ï_ÌÌ_È_ËÂÌÚ_203-5" x1="56.14" y1="142" x2="56.14" y2="123.65" xlink:href="#_ÂÁ_Ï_ÌÌ_È_ËÂÌÚ_203"/><linearGradient id="_ÂÁ_Ï_ÌÌ_È_ËÂÌÚ_203-6" x1="56.14" y1="160.36" x2="56.14" y2="142" xlink:href="#_ÂÁ_Ï_ÌÌ_È_ËÂÌÚ_203"/><linearGradient id="_ÂÁ_Ï_ÌÌ_È_ËÂÌÚ_203-7" x1="56.14" y1="178.71" x2="56.14" y2="160.36" xlink:href="#_ÂÁ_Ï_ÌÌ_È_ËÂÌÚ_203"/><linearGradient id="_ÂÁ_Ï_ÌÌ_È_ËÂÌÚ_203-8" x1="56.14" y1="197.07" x2="56.14" y2="178.71" xlink:href="#_ÂÁ_Ï_ÌÌ_È_ËÂÌÚ_203"/><style>.cls-5{mix-blend-mode:overlay;opacity:.3}</style></defs><g style="isolation:isolate"><g id="Layer_2" data-name="Layer 2"><g id="Layer_1-2" data-name="Layer 1"><path fill="url(#linear-gradient)" d="M0 0h112.29v39.99H0z"/><path fill="url(#linear-gradient-2)" d="M0 197.07h112.29v39.99H0z"/><path fill="url(#linear-gradient-3)" d="M0 39.99h112.29v157.08H0z"/><g class="cls-5"><path fill="url(#_ÂÁ_Ï_ÌÌ_È_ËÂÌÚ_203)" d="M0 39.99h112.29v18.36H0z"/><path fill="url(#_ÂÁ_Ï_ÌÌ_È_ËÂÌÚ_203-2)" d="M0 58.34h112.29V76.7H0z"/><path fill="url(#_ÂÁ_Ï_ÌÌ_È_ËÂÌÚ_203-3)" d="M0 76.7h112.29v18.36H0z"/><path fill="url(#_ÂÁ_Ï_ÌÌ_È_ËÂÌÚ_203-4)" d="M0 95.06h112.29v18.35H0z"/></g><g class="cls-5"><path fill="url(#_ÂÁ_Ï_ÌÌ_È_ËÂÌÚ_203-5)" d="M0 123.65h112.29V142H0z"/><path fill="url(#_ÂÁ_Ï_ÌÌ_È_ËÂÌÚ_203-6)" d="M0 142h112.29v18.36H0z"/><path fill="url(#_ÂÁ_Ï_ÌÌ_È_ËÂÌÚ_203-7)" d="M0 160.36h112.29v18.36H0z"/><path fill="url(#_ÂÁ_Ï_ÌÌ_È_ËÂÌÚ_203-8)" d="M0 178.71h112.29v18.36H0z"/></g><path fill="#f37021" d="M0 113.41h112.29v10.24H0z"/><path fill="#c65c28" d="M0 113.41h112.29v2.62H0z"/></g></g></g></svg>
