<svg width="969" height="186" fill="none" xmlns="http://www.w3.org/2000/svg"><g filter="url(#a)"><path fill-rule="evenodd" clip-rule="evenodd" d="M151.744 141.947c1.643 21.267 1.643 31.236 1.643 42.118h-48.829c0-2.371.042-4.539.084-6.738.132-6.835.27-13.962-.829-28.356-1.452-21.072-10.457-25.755-27.015-25.755H0v-38.34h79.122c20.915 0 31.372-6.412 31.372-23.387 0-14.926-10.457-23.972-31.372-23.972H0V0h87.836c47.35 0 70.88 22.536 70.88 58.535 0 26.926-16.558 44.486-38.926 47.413 18.882 3.805 29.92 14.634 31.954 35.999Z" fill="#4797FF"/><path d="M0 184.065v-28.582h51.63c8.624 0 10.496 6.446 10.496 10.289v18.293H0Z" fill="#83B9FF"/></g><g filter="url(#b)"><path d="M740.943 55.524h-48.395l-22.025 30.95-21.444-30.95h-51.873l46.656 63.943-50.714 66.278h48.396l25.792-35.329 25.791 35.329H745l-51.004-68.322 46.947-61.899Z" fill="#FF828A"/></g><g filter="url(#c)"><path d="M436.111 77.105c-5.506-15.183-17.388-25.694-40.281-25.694-19.416 0-33.326 8.76-40.281 23.066V54.915h-46.947v130.22h46.947v-63.942c0-19.562 5.506-32.409 20.865-32.409 14.2 0 17.677 9.343 17.677 27.154v69.197h46.947v-63.942c0-19.562 5.216-32.409 20.865-32.409 14.199 0 17.387 9.343 17.387 27.154v69.197h46.947v-81.752c0-27.154-10.433-51.972-46.077-51.972-21.735 0-37.094 11.095-44.049 25.694Z" fill="#FFDC6B"/></g><g filter="url(#d)"><path d="M259.716 134.599c-4.347 10.219-12.461 14.598-25.212 14.598-14.2 0-25.792-7.591-26.951-23.65h90.705v-13.138c0-35.329-22.893-65.111-66.073-65.111-40.281 0-70.419 29.49-70.419 70.658 0 41.46 29.559 66.57 70.999 66.57 34.196 0 57.959-16.642 64.624-46.424l-37.673-3.503Zm-51.583-31.826c1.738-12.263 8.404-21.606 23.473-21.606 13.91 0 21.444 9.927 22.024 21.606h-45.497Z" fill="#72FF68"/></g><g filter="url(#e)"><path d="M822.95 134.599c-4.347 10.219-12.461 14.598-25.212 14.598-14.2 0-25.792-7.591-26.951-23.65h90.705v-13.138c0-35.329-22.893-65.111-66.073-65.111-40.281 0-70.419 29.49-70.419 70.658 0 41.46 29.559 66.57 70.999 66.57 34.196 0 57.959-16.642 64.624-46.424l-37.673-3.503Zm-51.583-31.826c1.738-12.263 8.404-21.606 23.473-21.606 13.91 0 21.444 9.927 22.024 21.606h-45.497Z" fill="#8EFF86"/></g><g filter="url(#f)"><path d="M541.592 55.78V186h46.946V55.78h-46.946Zm-.29-12.263h47.526V2.056h-47.526v41.461Z" fill="#FF75FF"/></g><path d="M968.25 57.225c-3.025-2.475-9.625-4.675-17.05-4.675-16.225 0-29.15 11.275-33.55 25.025V55.85H873.1V178.5h44.55v-56.1c0-20.625 10.175-28.325 26.675-28.325 8.525 0 15.125 1.65 21.175 5.225l2.75-42.075Z" fill="#FF1212"/><defs><filter id="a" x="0" y="0" width="158.716" height="184.065" filterUnits="userSpaceOnUse" color-interpolation-filters="sRGB"><feFlood flood-opacity="0" result="BackgroundImageFix"/><feBlend in="SourceGraphic" in2="BackgroundImageFix" result="shape"/><feColorMatrix in="SourceAlpha" values="0 0 0 0 0 0 0 0 0 0 0 0 0 0 0 0 0 0 127 0" result="hardAlpha"/><feOffset/><feGaussianBlur stdDeviation="21"/><feComposite in2="hardAlpha" operator="arithmetic" k2="-1" k3="1"/><feColorMatrix values="0 0 0 0 0.223529 0 0 0 0 0.572549 0 0 0 0 1 0 0 0 1 0"/><feBlend in2="shape" result="effect1_innerShadow_2_3"/><feColorMatrix in="SourceAlpha" values="0 0 0 0 0 0 0 0 0 0 0 0 0 0 0 0 0 0 127 0" result="hardAlpha"/><feOffset/><feGaussianBlur stdDeviation="14"/><feComposite in2="hardAlpha" operator="arithmetic" k2="-1" k3="1"/><feColorMatrix values="0 0 0 0 0.223529 0 0 0 0 0.572549 0 0 0 0 1 0 0 0 0.9 0"/><feBlend in2="effect1_innerShadow_2_3" result="effect2_innerShadow_2_3"/></filter><filter id="b" x="593.148" y="55.524" width="151.852" height="130.221" filterUnits="userSpaceOnUse" color-interpolation-filters="sRGB"><feFlood flood-opacity="0" result="BackgroundImageFix"/><feBlend in="SourceGraphic" in2="BackgroundImageFix" result="shape"/><feColorMatrix in="SourceAlpha" values="0 0 0 0 0 0 0 0 0 0 0 0 0 0 0 0 0 0 127 0" result="hardAlpha"/><feOffset/><feGaussianBlur stdDeviation="14"/><feComposite in2="hardAlpha" operator="arithmetic" k2="-1" k3="1"/><feColorMatrix values="0 0 0 0 0.960784 0 0 0 0 0.2 0 0 0 0 0.258824 0 0 0 1 0"/><feBlend in2="shape" result="effect1_innerShadow_2_3"/><feColorMatrix in="SourceAlpha" values="0 0 0 0 0 0 0 0 0 0 0 0 0 0 0 0 0 0 127 0" result="hardAlpha"/><feOffset/><feGaussianBlur stdDeviation="16"/><feComposite in2="hardAlpha" operator="arithmetic" k2="-1" k3="1"/><feColorMatrix values="0 0 0 0 0.960784 0 0 0 0 0.2 0 0 0 0 0.258824 0 0 0 1 0"/><feBlend in2="effect1_innerShadow_2_3" result="effect2_innerShadow_2_3"/></filter><filter id="c" x="308.602" y="51.411" width="217.635" height="133.724" filterUnits="userSpaceOnUse" color-interpolation-filters="sRGB"><feFlood flood-opacity="0" result="BackgroundImageFix"/><feBlend in="SourceGraphic" in2="BackgroundImageFix" result="shape"/><feColorMatrix in="SourceAlpha" values="0 0 0 0 0 0 0 0 0 0 0 0 0 0 0 0 0 0 127 0" result="hardAlpha"/><feOffset/><feGaussianBlur stdDeviation="14"/><feComposite in2="hardAlpha" operator="arithmetic" k2="-1" k3="1"/><feColorMatrix values="0 0 0 0 0.996078 0 0 0 0 0.8 0 0 0 0 0.105882 0 0 0 1 0"/><feBlend in2="shape" result="effect1_innerShadow_2_3"/><feColorMatrix in="SourceAlpha" values="0 0 0 0 0 0 0 0 0 0 0 0 0 0 0 0 0 0 127 0" result="hardAlpha"/><feOffset/><feGaussianBlur stdDeviation="14"/><feComposite in2="hardAlpha" operator="arithmetic" k2="-1" k3="1"/><feColorMatrix values="0 0 0 0 0.996078 0 0 0 0 0.8 0 0 0 0 0.105882 0 0 0 1 0"/><feBlend in2="effect1_innerShadow_2_3" result="effect2_innerShadow_2_3"/></filter><filter id="d" x="161.766" y="47.298" width="136.492" height="137.228" filterUnits="userSpaceOnUse" color-interpolation-filters="sRGB"><feFlood flood-opacity="0" result="BackgroundImageFix"/><feBlend in="SourceGraphic" in2="BackgroundImageFix" result="shape"/><feColorMatrix in="SourceAlpha" values="0 0 0 0 0 0 0 0 0 0 0 0 0 0 0 0 0 0 127 0" result="hardAlpha"/><feOffset/><feGaussianBlur stdDeviation="14"/><feComposite in2="hardAlpha" operator="arithmetic" k2="-1" k3="1"/><feColorMatrix values="0 0 0 0 0.419608 0 0 0 0 0.85098 0 0 0 0 0.407843 0 0 0 1 0"/><feBlend in2="shape" result="effect1_innerShadow_2_3"/><feColorMatrix in="SourceAlpha" values="0 0 0 0 0 0 0 0 0 0 0 0 0 0 0 0 0 0 127 0" result="hardAlpha"/><feOffset/><feGaussianBlur stdDeviation="14"/><feComposite in2="hardAlpha" operator="arithmetic" k2="-1" k3="1"/><feColorMatrix values="0 0 0 0 0.419608 0 0 0 0 0.85098 0 0 0 0 0.407843 0 0 0 1 0"/><feBlend in2="effect1_innerShadow_2_3" result="effect2_innerShadow_2_3"/></filter><filter id="e" x="725" y="47.298" width="136.492" height="137.228" filterUnits="userSpaceOnUse" color-interpolation-filters="sRGB"><feFlood flood-opacity="0" result="BackgroundImageFix"/><feBlend in="SourceGraphic" in2="BackgroundImageFix" result="shape"/><feColorMatrix in="SourceAlpha" values="0 0 0 0 0 0 0 0 0 0 0 0 0 0 0 0 0 0 127 0" result="hardAlpha"/><feOffset/><feGaussianBlur stdDeviation="14"/><feComposite in2="hardAlpha" operator="arithmetic" k2="-1" k3="1"/><feColorMatrix values="0 0 0 0 0.419608 0 0 0 0 0.85098 0 0 0 0 0.407843 0 0 0 1 0"/><feBlend in2="shape" result="effect1_innerShadow_2_3"/><feColorMatrix in="SourceAlpha" values="0 0 0 0 0 0 0 0 0 0 0 0 0 0 0 0 0 0 127 0" result="hardAlpha"/><feOffset/><feGaussianBlur stdDeviation="14"/><feComposite in2="hardAlpha" operator="arithmetic" k2="-1" k3="1"/><feColorMatrix values="0 0 0 0 0.419608 0 0 0 0 0.85098 0 0 0 0 0.407843 0 0 0 1 0"/><feBlend in2="effect1_innerShadow_2_3" result="effect2_innerShadow_2_3"/></filter><filter id="f" x="541.302" y="2.056" width="47.526" height="183.944" filterUnits="userSpaceOnUse" color-interpolation-filters="sRGB"><feFlood flood-opacity="0" result="BackgroundImageFix"/><feBlend in="SourceGraphic" in2="BackgroundImageFix" result="shape"/><feColorMatrix in="SourceAlpha" values="0 0 0 0 0 0 0 0 0 0 0 0 0 0 0 0 0 0 127 0" result="hardAlpha"/><feOffset/><feGaussianBlur stdDeviation="14"/><feComposite in2="hardAlpha" operator="arithmetic" k2="-1" k3="1"/><feColorMatrix values="0 0 0 0 0.847059 0 0 0 0 0.231373 0 0 0 0 0.823529 0 0 0 1 0"/><feBlend in2="shape" result="effect1_innerShadow_2_3"/><feColorMatrix in="SourceAlpha" values="0 0 0 0 0 0 0 0 0 0 0 0 0 0 0 0 0 0 127 0" result="hardAlpha"/><feOffset/><feGaussianBlur stdDeviation="14"/><feComposite in2="hardAlpha" operator="arithmetic" k2="-1" k3="1"/><feColorMatrix values="0 0 0 0 0.847059 0 0 0 0 0.231373 0 0 0 0 0.823529 0 0 0 1 0"/><feBlend in2="effect1_innerShadow_2_3" result="effect2_innerShadow_2_3"/></filter></defs></svg>